PathFileType	4	(X/Y/Z)	1_coords_data.trc
DataRate	CameraRate	NumFrames	NumMarkers	Units	OrigDataRate	OrigDataStartFrame	OrigNumFrames
30.0	30.0	8	21	m	30.0	21	62
Frame#	Time	THUMB_TIP	THUMB_IP	THUMB_MCP	THUMB_CMC	INDEX_TIP	INDEX_DIP	INDEX_PIP	INDEX_MCP	MIDDLE_TIP	MIDDLE_DIP	MIDDLE_PIP	MIDDLE_MCP	RING_TIP	RING_DIP	RING_PIP	RING_MCP	PINKY_TIP	PINKY_DIP	PINKY_PIP	PINKY_MCP	WRIST
X1	Y1	Z1	X2	Y2	Z2	X3	Y3	Z3	X4	Y4	Z4	X5	Y5	Z5	X6	Y6	Z6	X7	Y7	Z7	X8	Y8	Z8	X9	Y9	Z9	X10	Y10	Z10	X11	Y11	Z11	X12	Y12	Z12	X13	Y13	Z13	X14	Y14	Z14	X15	Y15	Z15	X16	Y16	Z16	X17	Y17	Z17	X18	Y18	Z18	X19	Y19	Z19	X20	Y20	Z20	X21	Y21	Z21
20	0.6666666666666666	0.026099599838256837	0.0447510986328125	0.9307969970703125	0.03024290084838867	0.05132229995727539	0.9542869873046875	0.025580699920654298	0.05391379928588867	0.9811790161132813	0.0015033700466156002	0.06105009841918945	0.9950910034179687	0.07732530212402344	-0.04659700012207031	0.9436959838867187	0.06735279846191407	-0.02953380012512207	0.9535800170898437	0.05603549957275391	-0.013874899864196778	0.9623909912109375	0.03172669982910156	0.010855999946594239	0.9773889770507812	0.030579900741577147	0.03886249923706055	0.9591430053710938	0.033476898193359375	0.030193199157714845	0.9412160034179687	0.027659400939941407	0.006883069992065429	0.9356389770507813	0.007851290225982665	0.00028400099277496306	0.9718900146484375	0.014952199935913086	0.04443519973754883	0.950551025390625	0.014425999641418457	0.03294509887695313	0.9359149780273438	0.005627880096435547	0.010907699584960937	0.9306649780273437	-0.010322500228881835	0.007300680160522461	0.961822998046875	-0.030616100311279298	-0.01981830024719238	0.9074219970703125	-0.027795099258422853	-0.006712069988250732	0.9218369750976563	-0.025092800140380858	0.003763789892196655	0.934406005859375	-0.020643199920654297	0.02208639907836914	0.9534710083007812	-0.027650999069213866	0.05138919830322266	1.01372998046875
21	0.7	0.026718999862670897	0.04546920013427734	0.9312620239257813	0.03069580078125	0.05197050094604492	0.9547730102539063	0.025892900466918944	0.05440439987182617	0.9814180297851562	0.0019084700345993041	0.061265499114990234	0.9954609985351562	0.07792530059814454	-0.04584529876708984	0.94381201171875	0.06790509796142578	-0.028758100509643555	0.9538350219726562	0.05645780181884766	-0.013250800132751464	0.9627239990234375	0.032000099182128906	0.011312999725341798	0.9777780151367188	0.031118000030517578	0.03939170074462891	0.9592470092773437	0.03391320037841797	0.030893699645996094	0.9416110229492187	0.028106800079345705	0.0075252499580383304	0.9358820190429687	0.008128729820251465	0.000748872995376586	0.9720490112304687	0.015319100379943848	0.04524520111083984	0.9510150146484375	0.014964300155639649	0.033747501373291015	0.9362789916992188	0.006084710121154785	0.011611100196838378	0.9309400024414063	-0.010048999786376953	0.007847229957580566	0.9619949951171874	-0.029992599487304688	-0.019135000228881836	0.9073359985351562	-0.027311899185180663	-0.006168059825897217	0.9220449829101562	-0.024543399810791015	0.004349339962005616	0.9344119873046876	-0.02029400062561035	0.022556999206542968	0.9536240234375	-0.02759950065612793	0.051755298614501954	1.014239990234375
22	0.7333333333333333	0.026963300704956054	0.04589730072021484	0.9315759887695313	0.030971200942993164	0.052594600677490236	0.9550960083007812	0.02596750068664551	0.05495420074462891	0.9815280151367187	0.001880879998207092	0.061717800140380856	0.9955640258789062	0.07839869689941406	-0.04494820022583008	0.94414501953125	0.06825679779052735	-0.027970500946044922	0.9541209716796875	0.056762001037597654	-0.012542499542236327	0.963	0.032265899658203125	0.011803600311279297	0.978052978515625	0.03124169921875	0.03999399948120117	0.9593599853515625	0.03416450119018555	0.03138820075988769	0.9419550170898437	0.028494199752807616	0.008156800270080566	0.9358930053710938	0.008382789611816406	0.001130349993705749	0.9722239990234375	0.015646400451660155	0.04579909896850586	0.9512039794921875	0.015056400299072266	0.03427920150756836	0.9368070068359375	0.006338510036468506	0.012173999786376953	0.9310170288085937	-0.009815509796142579	0.008189479827880859	0.9619660034179688	-0.029326900482177735	-0.01856450080871582	0.9072069702148438	-0.02673710060119629	-0.0056755499839782715	0.9218140258789063	-0.024205299377441408	0.004742809772491455	0.9343839721679688	-0.020165599822998048	0.02287310028076172	0.9539199829101562	-0.027602699279785155	0.05201359939575195	1.0141699829101563
23	0.7666666666666667	0.02691130065917969	0.0465989990234375	0.9318400268554687	0.031007200241088866	0.05320880126953125	0.955176025390625	0.02590660095214844	0.05547380065917969	0.9817429809570313	0.001991140007972717	0.06209960174560547	0.995823974609375	0.07868499755859375	-0.04374599838256836	0.9434959716796875	0.06847989654541016	-0.026871099472045898	0.9538090209960938	0.05685499954223633	-0.011708999633789062	0.9627960205078125	0.032324298858642575	0.012416700363159179	0.97818798828125	0.031377599716186526	0.04042179870605469	0.95989501953125	0.03421139907836914	0.03211299896240234	0.94202001953125	0.02871500015258789	0.008845450401306153	0.93602197265625	0.008687080383300782	0.00169526994228363	0.972177978515625	0.015563400268554687	0.046407001495361325	0.9511929931640625	0.015068799972534179	0.03493830108642578	0.93710498046875	0.006500710010528565	0.012872099876403809	0.9311090087890626	-0.009547200202941895	0.008650270462036133	0.9620009765625	-0.028905399322509767	-0.01776020050048828	0.9068300170898438	-0.02648819923400879	-0.005029640197753906	0.9216539916992188	-0.02400659942626953	0.00527495002746582	0.9342139892578125	-0.02006609916687012	0.023324199676513672	0.9537739868164062	-0.027590299606323244	0.05229819869995117	1.014219970703125
24	0.8	0.026823299407958984	0.04675230026245117	0.9321259765625	0.03089979934692383	0.05340169906616211	0.9555460205078125	0.025999500274658204	0.055735698699951174	0.9820880126953125	0.0018074699640274038	0.06249560165405273	0.99627197265625	0.07827040100097657	-0.0436260986328125	0.9431400146484376	0.06809030151367187	-0.026747699737548827	0.9537689819335937	0.05656650161743164	-0.01158209991455078	0.9628880004882813	0.0321797981262207	0.012695799827575684	0.9785490112304688	0.03117690086364746	0.040651199340820315	0.9602630004882813	0.03409090042114258	0.0322666015625	0.9423709716796875	0.028716400146484376	0.008991230010986328	0.9365050048828125	0.008543519973754883	0.001943920016288757	0.9721339721679687	0.015341099739074706	0.04650189971923828	0.952114013671875	0.014932999610900879	0.03506740188598633	0.9371939697265625	0.006257400035858154	0.013048299789428711	0.9312540283203125	-0.009786499977111816	0.008888710021972656	0.9622340087890625	-0.028908100128173828	-0.017389799118041994	0.906677001953125	-0.026640800476074217	-0.00472681999206543	0.9216119995117188	-0.02431599998474121	0.00555951976776123	0.9344130249023438	-0.02049530029296875	0.023465400695800782	0.9540419921875	-0.02765239906311035	0.05261410140991211	1.01452001953125
25	0.8333333333333334	0.02628619956970215	0.04657749938964844	0.9326920166015625	0.03077479934692383	0.053215301513671875	0.956	0.025738500595092775	0.05572650146484375	0.9821950073242187	0.0015993399620056151	0.06247090148925781	0.9962340087890625	0.07751629638671875	-0.04352069854736328	0.9426749877929688	0.06729900360107421	-0.02686680030822754	0.9535910034179688	0.055735698699951174	-0.011637800216674805	0.963280029296875	0.03167280006408692	0.012604599952697753	0.9790269775390625	0.030715999603271486	0.0405161018371582	0.9606890258789063	0.0338401985168457	0.031834400177001954	0.9428480224609375	0.02863960075378418	0.008574430465698241	0.9369760131835938	0.00794543981552124	0.002128309965133667	0.9726820068359375	0.015105999946594239	0.04642079925537109	0.9525239868164063	0.014553799629211425	0.03492520141601563	0.937739990234375	0.0060204901695251455	0.012971099853515624	0.9317069702148437	-0.010452099800109863	0.008972960472106934	0.9627269897460937	-0.028494400024414064	-0.016319799423217773	0.9057449951171875	-0.026573699951171877	-0.0041055197715759275	0.9211190185546875	-0.024559600830078125	0.005781660079956055	0.9342470092773437	-0.02119779968261719	0.02338559913635254	0.9543989868164062	-0.027992599487304686	0.052831699371337894	1.0148599853515625
26	0.8666666666666667	0.02564550018310547	0.046608001708984374	0.9333779907226563	0.030383100509643556	0.0531172981262207	0.9565579833984375	0.025626300811767578	0.05550790023803711	0.9830289916992188	0.001397439956665039	0.062158500671386716	0.9964000244140625	0.07643630218505859	-0.04207339859008789	0.9402319946289063	0.06631259918212891	-0.02598859977722168	0.9520770263671875	0.05481179809570313	-0.011481300354003906	0.962426025390625	0.031052099227905274	0.012419699668884277	0.97935400390625	0.03004509925842285	0.040198699951171875	0.9612830200195313	0.03333430099487305	0.03170820045471191	0.9433159790039063	0.02832990074157715	0.008524700164794922	0.93722900390625	0.007312670230865478	0.002066339969635009	0.9726619873046874	0.014529399871826172	0.04646500015258789	0.9531790161132813	0.014008399963378906	0.035039798736572265	0.9380919799804688	0.005372290134429932	0.0132076997756958	0.9319190063476562	-0.011183899879455566	0.008995439529418945	0.9629550170898438	-0.02878899955749512	-0.014800000190734863	0.9047730102539062	-0.027127500534057616	-0.003087300062179565	0.920676025390625	-0.02522760009765625	0.006421619892120361	0.9342860107421875	-0.02214590072631836	0.023460399627685546	0.9548930053710938	-0.02828089904785156	0.05276959991455078	1.0152999877929687
27	0.9	0.02459309959411621	0.04712089920043945	0.9338480224609375	0.029601699829101564	0.053173698425292966	0.9573109741210938	0.025325599670410155	0.05554869842529297	0.9842340087890625	0.000777375996112823	0.06219380187988281	0.9975880126953125	0.07467469787597657	-0.038004199981689454	0.9342769775390625	0.06470130157470703	-0.023718900680541992	0.9480780029296875	0.053238601684570314	-0.010363300323486329	0.9605770263671874	0.03018320083618164	0.012277199745178222	0.9798510131835938	0.02881290054321289	0.040022499084472654	0.9620819702148438	0.032404201507568356	0.03196349906921387	0.9436890258789062	0.027710399627685546	0.008804140090942382	0.9373049926757813	0.0067665700912475585	0.00194130003452301	0.972541015625	0.013294099807739258	0.0468297004699707	0.9532420043945312	0.01289050006866455	0.035489299774169925	0.9386500244140625	0.004444479942321777	0.013666099548339843	0.93231298828125	-0.01195989990234375	0.009074099540710449	0.9632620239257812	-0.0282096004486084	-0.011396100044250488	0.902844970703125	-0.02745739936828613	-0.001256019949913025	0.9199730224609375	-0.026163999557495116	0.007274439811706543	0.93427099609375	-0.023422000885009765	0.023340200424194334	0.9557050170898438	-0.02870870018005371	0.0523572998046875	1.015989990234375
